<?xml version="1.0" encoding="UTF-8"?>
<!DOCTYPE svg PUBLIC "-//W3C//DTD SVG 1.1//EN" "http://www.w3.org/Graphics/SVG/1.1/DTD/svg11.dtd">
<!-- Creator: CorelDRAW X7 -->
<svg xmlns="http://www.w3.org/2000/svg" xml:space="preserve" width="82.6104mm" height="20.1957mm" version="1.1" style="shape-rendering:geometricPrecision; text-rendering:geometricPrecision; image-rendering:optimizeQuality; fill-rule:evenodd; clip-rule:evenodd"
viewBox="0 0 8333 2037"
 xmlns:xlink="http://www.w3.org/1999/xlink">
 <defs>
  <style type="text/css">
   <![CDATA[
    .str0 {stroke:#FEFEFE;stroke-width:75.2471;stroke-linecap:round;stroke-linejoin:round}
    .str2 {stroke:#FEFEFE;stroke-width:111.65;stroke-linecap:round;stroke-linejoin:round}
    .str1 {stroke:#FEFEFE;stroke-width:89.308;stroke-linecap:round;stroke-linejoin:round}
    .fil2 {fill:none}
    .fil4 {fill:none;fill-rule:nonzero}
    .fil0 {fill:#128C30}
    .fil1 {fill:#1F1A17}
    .fil3 {fill:white}
    .fil6 {fill:#128C30;fill-rule:nonzero}
    .fil5 {fill:#1F1A17;fill-rule:nonzero}
   ]]>
  </style>
 </defs>
 <g id="Capa_x0020_1">
  <metadata id="CorelCorpID_0Corel-Layer"/>
  <g id="_315017328">
   <polygon class="fil0" points="0,0 8168,0 7862,483 0,483 "/>
   <polygon class="fil1" points="0,483 8333,483 7498,1738 0,1738 "/>
   <polygon class="fil0" points="0,1739 7111,1739 6939,1981 0,1981 "/>
   <g>
    <g>
     <g>
      <path class="fil2 str0" d="M2393 1505l3 -27c-11,-208 -99,-334 -214,-422 -152,-115 -305,-93 -507,-139 -140,-31 -393,-107 -427,-218 -16,-53 17,-92 42,-112 43,-34 403,-28 463,-26 578,25 1458,211 1955,555 18,12 30,31 55,25 3,-27 -52,-54 -89,-78 -365,-241 -964,-400 -1391,-473 -145,-25 -310,-42 -458,-51 -39,-3 -136,-1 -165,-9 517,-17 1128,92 1607,266 85,30 145,56 218,93 41,21 190,114 200,115 -2,-18 -20,-25 -51,-44 -20,-12 -40,-25 -58,-36 51,17 126,61 175,89l153 97c0,0 2,0 2,0l5 -1c3,-11 -104,-76 -126,-89 -153,-91 -300,-151 -463,-223 -214,-95 -446,-168 -682,-230 -464,-122 -1131,-221 -1620,-102 -118,29 -238,81 -298,155 -14,18 -31,47 -38,76 -11,40 3,85 -3,103 -20,67 -42,83 -44,187 -4,226 114,399 251,549 21,22 38,35 59,56 206,205 626,429 962,407 92,-6 182,-39 255,-88 21,-14 43,-36 64,-48 63,-71 92,-139 114,-191 21,-50 36,-83 51,-166zm-1698 -734c6,-6 42,-59 66,-85 16,-16 59,-55 84,-66 -37,44 -87,94 -70,189 21,121 142,230 235,298 25,18 138,102 170,99 3,-21 2,-20 -13,-28 -122,-74 -261,-161 -334,-289 -117,-203 81,-310 241,-357 312,-92 729,-68 1060,-27 41,5 110,22 144,21l-220 -23c-149,-15 -322,-21 -470,-7 -37,4 -73,9 -108,16 -24,5 -79,15 -100,30 74,-2 149,-16 225,-20 477,-27 955,55 1411,181 32,9 69,23 98,28 -31,-24 -233,-83 -288,-99 -494,-151 -1174,-263 -1685,-179 -101,17 -216,46 -296,89 -69,38 -177,111 -150,229z"/>
      <path id="1" class="fil1" d="M2393 1505l3 -27c-11,-208 -99,-334 -214,-422 -152,-115 -305,-93 -507,-139 -140,-31 -393,-107 -427,-218 -16,-53 17,-92 42,-112 43,-34 403,-28 463,-26 578,25 1458,211 1955,555 18,12 30,31 55,25 3,-27 -52,-54 -89,-78 -365,-241 -964,-400 -1391,-473 -145,-25 -310,-42 -458,-51 -39,-3 -136,-1 -165,-9 517,-17 1128,92 1607,266 85,30 145,56 218,93 41,21 190,114 200,115 -2,-18 -20,-25 -51,-44 -20,-12 -40,-25 -58,-36 51,17 126,61 175,89l153 97c0,0 2,0 2,0l5 -1c3,-11 -104,-76 -126,-89 -153,-91 -300,-151 -463,-223 -214,-95 -446,-168 -682,-230 -464,-122 -1131,-221 -1620,-102 -118,29 -238,81 -298,155 -14,18 -31,47 -38,76 -11,40 3,85 -3,103 -20,67 -42,83 -44,187 -4,226 114,399 251,549 21,22 38,35 59,56 206,205 626,429 962,407 92,-6 182,-39 255,-88 21,-14 43,-36 64,-48 63,-71 92,-139 114,-191 21,-50 36,-83 51,-166zm-1698 -734c6,-6 42,-59 66,-85 16,-16 59,-55 84,-66 -37,44 -87,94 -70,189 21,121 142,230 235,298 25,18 138,102 170,99 3,-21 2,-20 -13,-28 -122,-74 -261,-161 -334,-289 -117,-203 81,-310 241,-357 312,-92 729,-68 1060,-27 41,5 110,22 144,21l-220 -23c-149,-15 -322,-21 -470,-7 -37,4 -73,9 -108,16 -24,5 -79,15 -100,30 74,-2 149,-16 225,-20 477,-27 955,55 1411,181 32,9 69,23 98,28 -31,-24 -233,-83 -288,-99 -494,-151 -1174,-263 -1685,-179 -101,17 -216,46 -296,89 -69,38 -177,111 -150,229z"/>
     </g>
     <path class="fil3" d="M1804 1025c26,16 38,16 51,31 -53,26 -86,71 -122,116 -98,2 -166,24 -180,24l-1 -44c-28,21 -68,76 -89,118 -25,51 -41,100 -46,164 21,-14 31,-29 43,-44 12,15 24,56 35,78 17,32 33,47 49,73 -14,73 -18,99 -21,178l-44 -10c22,60 134,159 205,184 -8,-19 -25,-37 -26,-57 48,0 95,-3 141,-21 48,-18 26,4 107,39 27,12 55,20 79,30l-24 41c85,-11 216,-85 250,-141l-66 11c16,-76 23,-87 23,-174 20,-10 53,-39 68,-55l57 -69c12,8 9,9 17,18 4,5 11,14 17,13 19,-77 -18,-223 -55,-275l-8 54c-14,-4 -52,-31 -72,-41 -14,-6 -81,-28 -85,-33 -3,-3 -32,-69 -39,-81 -16,-28 -30,-46 -48,-70l43 -20c-49,-32 -190,-57 -259,-37z"/>
     <path class="fil1" d="M1862 1654c76,-17 151,-81 190,-98 -5,-77 -24,-143 -37,-213 -60,-11 -111,-23 -175,-27 -49,-3 -43,4 -64,38 -13,22 -25,44 -36,69 -36,85 -54,80 67,183 19,16 36,33 55,48z"/>
    </g>
    <g>
     <path class="fil4 str1" d="M1840 1013c23,14 43,24 60,30 16,5 32,8 47,8 16,0 29,-3 38,-10 10,-7 14,-16 14,-27 0,-15 -17,-33 -50,-52 -6,-3 -10,-6 -13,-7l-26 -15c-25,-14 -43,-30 -55,-48 -12,-17 -18,-38 -18,-60 0,-31 11,-56 35,-75 22,-20 52,-29 89,-29 13,0 28,1 43,4 16,3 33,8 53,15l0 89c-19,-12 -36,-20 -52,-27 -17,-6 -31,-9 -42,-9 -13,0 -23,3 -30,8 -8,6 -11,13 -11,22 0,7 2,13 6,19 5,6 11,11 20,16l44 24c38,21 63,40 75,57 13,18 20,38 20,62 0,37 -13,67 -38,90 -25,23 -59,34 -100,34 -15,0 -30,-1 -47,-4 -16,-3 -34,-8 -54,-14l-8 -101z"/>
    </g>
    <g>
     <path id="1" class="fil4 str1" d="M2205 980l102 -3 0 -4c0,-12 -5,-22 -13,-30 -9,-8 -20,-12 -33,-12 -15,0 -27,4 -37,13 -10,8 -16,20 -19,36zm156 56l-9 72c-16,8 -32,13 -48,17 -15,4 -31,6 -47,6 -39,0 -71,-12 -95,-34 -24,-23 -36,-52 -36,-89 0,-37 13,-69 40,-96 26,-26 58,-39 96,-39 32,0 59,10 79,29 21,19 31,44 31,74 0,5 0,12 -1,23l0 1 -7 11 -161 4c1,16 8,29 20,39 12,10 27,15 45,15 13,0 27,-3 43,-8 16,-6 33,-14 50,-25z"/>
    </g>
    <g>
     <path id="2" class="fil4 str1" d="M2419 1233l0 -349 82 0c9,-3 17,-5 25,-7 8,-1 16,-2 24,-2 34,0 62,12 84,35 22,24 34,54 34,91 0,39 -12,70 -36,94 -24,24 -55,36 -93,36 -6,0 -11,-1 -17,-1 -5,-1 -13,-2 -21,-3l0 93 -82 13zm82 -167c6,1 11,2 15,3 4,1 8,1 12,1 16,0 29,-7 40,-20 10,-13 15,-29 15,-49 0,-19 -4,-34 -14,-47 -10,-12 -22,-18 -36,-18 -4,0 -9,0 -14,1 -5,1 -11,3 -18,5l0 124z"/>
    </g>
    <g>
     <path id="3" class="fil4 str1" d="M2868 944c-5,-3 -10,-5 -14,-6 -5,-1 -9,-2 -14,-2 -15,0 -28,7 -39,20 -11,13 -16,29 -16,49 0,18 5,34 14,46 9,12 21,18 34,18 6,0 11,-1 17,-4 6,-3 11,-7 18,-13l0 -108zm82 -60l0 147c0,19 0,34 1,47 0,13 1,23 3,32l-76 21 -8 -22c-10,7 -20,13 -30,17 -10,3 -20,5 -31,5 -30,0 -56,-12 -77,-36 -20,-25 -31,-55 -31,-91 0,-38 12,-69 35,-94 23,-25 53,-37 88,-37 8,0 17,1 26,3 9,2 19,6 30,11l70 -3z"/>
    </g>
    <g>
     <path id="4" class="fil4 str1" d="M3095 1120l-83 0 0 -236 77 0 2 41c9,-16 20,-28 33,-36 12,-7 28,-11 47,-11l6 0 0 88 -8 0 -9 0c-26,0 -43,3 -52,9 -9,6 -13,20 -13,42l0 103z"/>
    </g>
    <g>
     <path id="5" class="fil4 str1" d="M3373 944c-5,-3 -10,-5 -14,-6 -5,-1 -9,-2 -14,-2 -15,0 -28,7 -39,20 -11,13 -16,29 -16,49 0,18 5,34 14,46 9,12 21,18 34,18 6,0 11,-1 17,-4 6,-3 11,-7 18,-13l0 -108zm82 -60l0 147c0,19 0,34 1,47 0,13 1,23 3,32l-76 21 -8 -22c-10,7 -20,13 -30,17 -10,3 -20,5 -31,5 -30,0 -56,-12 -76,-36 -21,-25 -32,-55 -32,-91 0,-38 12,-69 35,-94 23,-25 53,-37 88,-37 8,0 17,1 26,3 9,2 19,6 30,11l70 -3z"/>
    </g>
    <g>
     <polygon id="6" class="fil4 str1" points="3606,1120 3606,820 3485,820 3485,740 3816,740 3816,820 3696,820 3696,1120 "/>
    </g>
    <g>
     <path id="7" class="fil4 str1" d="M3930 884l82 0 0 236 -76 11 0 -46c-13,16 -26,27 -40,35 -14,7 -29,11 -46,11 -25,0 -44,-7 -57,-21 -13,-15 -19,-36 -19,-63l0 -163 82 0 0 140c0,12 2,22 7,28 5,6 13,9 23,9 14,0 25,-4 33,-14 7,-10 11,-24 11,-42l0 -121z"/>
    </g>
    <path id="8" class="fil5" d="M1840 1013c23,14 43,24 60,30 16,5 32,8 47,8 16,0 29,-3 38,-10 10,-7 14,-16 14,-27 0,-15 -17,-33 -50,-52 -6,-3 -10,-6 -13,-7l-26 -15c-25,-14 -43,-30 -55,-48 -12,-17 -18,-38 -18,-60 0,-31 11,-56 35,-75 22,-20 52,-29 89,-29 13,0 28,1 43,4 16,3 33,8 53,15l0 89c-19,-12 -36,-20 -52,-27 -17,-6 -31,-9 -42,-9 -13,0 -23,3 -30,8 -8,6 -11,13 -11,22 0,7 2,13 6,19 5,6 11,11 20,16l44 24c38,21 63,40 75,57 13,18 20,38 20,62 0,37 -13,67 -38,90 -25,23 -59,34 -100,34 -15,0 -30,-1 -47,-4 -16,-3 -34,-8 -54,-14l-8 -101z"/>
    <path id="9" class="fil5" d="M2205 980l102 -3 0 -4c0,-12 -5,-22 -13,-30 -9,-8 -20,-12 -33,-12 -15,0 -27,4 -37,13 -10,8 -16,20 -19,36zm156 56l-9 72c-16,8 -32,13 -48,17 -15,4 -31,6 -47,6 -39,0 -71,-12 -95,-34 -24,-23 -36,-52 -36,-89 0,-37 13,-69 40,-96 26,-26 58,-39 96,-39 32,0 59,10 79,29 21,19 31,44 31,74 0,5 0,12 -1,23l0 1 -7 11 -161 4c1,16 8,29 20,39 12,10 27,15 45,15 13,0 27,-3 43,-8 16,-6 33,-14 50,-25z"/>
    <path id="10" class="fil5" d="M2419 1233l0 -349 82 0c9,-3 17,-5 25,-7 8,-1 16,-2 24,-2 34,0 62,12 84,35 22,24 34,54 34,91 0,39 -12,70 -36,94 -24,24 -55,36 -93,36 -6,0 -11,-1 -17,-1 -5,-1 -13,-2 -21,-3l0 93 -82 13zm82 -167c6,1 11,2 15,3 4,1 8,1 12,1 16,0 29,-7 40,-20 10,-13 15,-29 15,-49 0,-19 -4,-34 -14,-47 -10,-12 -22,-18 -36,-18 -4,0 -9,0 -14,1 -5,1 -11,3 -18,5l0 124z"/>
    <path id="11" class="fil5" d="M2868 944c-5,-3 -10,-5 -14,-6 -5,-1 -9,-2 -14,-2 -15,0 -28,7 -39,20 -11,13 -16,29 -16,49 0,18 5,34 14,46 9,12 21,18 34,18 6,0 11,-1 17,-4 6,-3 11,-7 18,-13l0 -108zm82 -60l0 147c0,19 0,34 1,47 0,13 1,23 3,32l-76 21 -8 -22c-10,7 -20,13 -30,17 -10,3 -20,5 -31,5 -30,0 -56,-12 -77,-36 -20,-25 -31,-55 -31,-91 0,-38 12,-69 35,-94 23,-25 53,-37 88,-37 8,0 17,1 26,3 9,2 19,6 30,11l70 -3z"/>
    <path id="12" class="fil5" d="M3095 1120l-83 0 0 -236 77 0 2 41c9,-16 20,-28 33,-36 12,-7 28,-11 47,-11l6 0 0 88 -8 0 -9 0c-26,0 -43,3 -52,9 -9,6 -13,20 -13,42l0 103z"/>
    <path id="13" class="fil5" d="M3373 944c-5,-3 -10,-5 -14,-6 -5,-1 -9,-2 -14,-2 -15,0 -28,7 -39,20 -11,13 -16,29 -16,49 0,18 5,34 14,46 9,12 21,18 34,18 6,0 11,-1 17,-4 6,-3 11,-7 18,-13l0 -108zm82 -60l0 147c0,19 0,34 1,47 0,13 1,23 3,32l-76 21 -8 -22c-10,7 -20,13 -30,17 -10,3 -20,5 -31,5 -30,0 -56,-12 -76,-36 -21,-25 -32,-55 -32,-91 0,-38 12,-69 35,-94 23,-25 53,-37 88,-37 8,0 17,1 26,3 9,2 19,6 30,11l70 -3z"/>
    <polygon id="14" class="fil5" points="3606,1120 3606,820 3485,820 3485,740 3816,740 3816,820 3696,820 3696,1120 "/>
    <path id="15" class="fil5" d="M3930 884l82 0 0 236 -76 11 0 -46c-13,16 -26,27 -40,35 -14,7 -29,11 -46,11 -25,0 -44,-7 -57,-21 -13,-15 -19,-36 -19,-63l0 -163 82 0 0 140c0,12 2,22 7,28 5,6 13,9 23,9 14,0 25,-4 33,-14 7,-10 11,-24 11,-42l0 -121z"/>
    <g>
     <path class="fil4 str2" d="M2663 1480l-135 0 0 -90c0,-26 -1,-42 -4,-48 -3,-7 -9,-10 -19,-10 -11,0 -18,4 -21,12 -3,8 -4,25 -4,51l0 239c0,25 1,42 4,49 3,8 10,12 20,12 10,0 17,-4 20,-12 3,-7 4,-25 4,-54l0 -65 135 0 0 20c0,54 -4,92 -12,114 -7,22 -24,42 -50,59 -26,17 -57,25 -95,25 -39,0 -72,-7 -97,-21 -26,-14 -43,-34 -51,-59 -8,-26 -12,-63 -12,-114l0 -151c0,-37 1,-65 3,-83 3,-19 10,-37 23,-54 13,-17 30,-31 53,-41 22,-10 48,-14 77,-14 39,0 72,7 98,23 26,15 42,34 51,57 8,22 12,58 12,106l0 49z"/>
    </g>
    <g>
     <path id="1" class="fil4 str2" d="M2942 1255l77 516 -137 0 -7 -93 -49 0 -7 93 -139 0 68 -516 194 0zm-71 332c-6,-58 -13,-131 -20,-217 -14,99 -22,171 -26,217l46 0z"/>
    </g>
    <g>
     <polygon id="2" class="fil4 str2" points="3341,1255 3341,1771 3224,1771 3154,1536 3154,1771 3042,1771 3042,1255 3154,1255 3229,1487 3229,1255 "/>
    </g>
    <g>
     <path id="3" class="fil4 str2" d="M3708 1480l-134 0 0 -90c0,-26 -1,-42 -4,-48 -3,-7 -9,-10 -19,-10 -11,0 -18,4 -21,12 -3,8 -4,25 -4,51l0 239c0,25 1,42 4,49 3,8 10,12 20,12 10,0 16,-4 19,-12 3,-7 5,-25 5,-54l0 -65 134 0 0 20c0,54 -3,92 -11,114 -7,22 -24,42 -50,59 -26,17 -58,25 -95,25 -40,0 -72,-7 -98,-21 -25,-14 -42,-34 -50,-59 -9,-26 -13,-63 -13,-114l0 -151c0,-37 2,-65 4,-83 3,-19 10,-37 23,-54 13,-17 30,-31 52,-41 23,-10 49,-14 78,-14 39,0 72,7 98,23 25,15 42,34 50,57 8,22 12,58 12,106l0 49z"/>
    </g>
    <g>
     <polygon id="4" class="fil4 str2" points="4064,1255 4064,1771 3930,1771 3930,1554 3891,1554 3891,1771 3756,1771 3756,1255 3891,1255 3891,1440 3930,1440 3930,1255 "/>
    </g>
    <g>
     <polygon id="5" class="fil4 str2" points="4253,1255 4253,1771 4119,1771 4119,1255 "/>
    </g>
    <g>
     <polygon id="6" class="fil4 str2" points="4577,1255 4577,1358 4498,1358 4498,1771 4363,1771 4363,1358 4284,1358 4284,1255 "/>
    </g>
    <g>
     <path id="7" class="fil4 str2" d="M4813 1255l76 516 -137 0 -7 -93 -48 0 -8 93 -138 0 68 -516 194 0zm-72 332c-6,-58 -13,-131 -20,-217 -13,99 -22,171 -25,217l45 0z"/>
    </g>
    <path id="8" class="fil6" d="M2663 1480l-135 0 0 -90c0,-26 -1,-42 -4,-48 -3,-7 -9,-10 -19,-10 -11,0 -18,4 -21,12 -3,8 -4,25 -4,51l0 239c0,25 1,42 4,49 3,8 10,12 20,12 10,0 17,-4 20,-12 3,-7 4,-25 4,-54l0 -65 135 0 0 20c0,54 -4,92 -12,114 -7,22 -24,42 -50,59 -26,17 -57,25 -95,25 -39,0 -72,-7 -97,-21 -26,-14 -43,-34 -51,-59 -8,-26 -12,-63 -12,-114l0 -151c0,-37 1,-65 3,-83 3,-19 10,-37 23,-54 13,-17 30,-31 53,-41 22,-10 48,-14 77,-14 39,0 72,7 98,23 26,15 42,34 51,57 8,22 12,58 12,106l0 49z"/>
    <path id="9" class="fil6" d="M2942 1255l77 516 -137 0 -7 -93 -49 0 -7 93 -139 0 68 -516 194 0zm-71 332c-6,-58 -13,-131 -20,-217 -14,99 -22,171 -26,217l46 0z"/>
    <polygon id="10" class="fil6" points="3341,1255 3341,1771 3224,1771 3154,1536 3154,1771 3042,1771 3042,1255 3154,1255 3229,1487 3229,1255 "/>
    <path id="11" class="fil6" d="M3708 1480l-134 0 0 -90c0,-26 -1,-42 -4,-48 -3,-7 -9,-10 -19,-10 -11,0 -18,4 -21,12 -3,8 -4,25 -4,51l0 239c0,25 1,42 4,49 3,8 10,12 20,12 10,0 16,-4 19,-12 3,-7 5,-25 5,-54l0 -65 134 0 0 20c0,54 -3,92 -11,114 -7,22 -24,42 -50,59 -26,17 -58,25 -95,25 -40,0 -72,-7 -98,-21 -25,-14 -42,-34 -50,-59 -9,-26 -13,-63 -13,-114l0 -151c0,-37 2,-65 4,-83 3,-19 10,-37 23,-54 13,-17 30,-31 52,-41 23,-10 49,-14 78,-14 39,0 72,7 98,23 25,15 42,34 50,57 8,22 12,58 12,106l0 49z"/>
    <polygon id="12" class="fil6" points="4064,1255 4064,1771 3930,1771 3930,1554 3891,1554 3891,1771 3756,1771 3756,1255 3891,1255 3891,1440 3930,1440 3930,1255 "/>
    <polygon id="13" class="fil6" points="4253,1255 4253,1771 4119,1771 4119,1255 "/>
    <polygon id="14" class="fil6" points="4577,1255 4577,1358 4498,1358 4498,1771 4363,1771 4363,1358 4284,1358 4284,1255 "/>
    <path id="15" class="fil6" d="M4813 1255l76 516 -137 0 -7 -93 -48 0 -8 93 -138 0 68 -516 194 0zm-72 332c-6,-58 -13,-131 -20,-217 -13,99 -22,171 -25,217l45 0z"/>
   </g>
  </g>
 </g>
</svg>
